<svg width="67" height="20" viewBox="0 0 67 20" fill="none" xmlns="http://www.w3.org/2000/svg">
<path d="M15.4465 4.90591V11.0949C15.4465 11.1952 15.407 11.2914 15.3368 11.3623C15.2665 11.4333 15.1713 11.4731 15.0719 11.4731H13.1375C13.0382 11.4731 12.943 11.4332 12.8727 11.3623C12.8025 11.2914 12.763 11.1952 12.763 11.0949V1.02823C12.763 0.92791 12.8024 0.831698 12.8727 0.76076C12.9429 0.689822 13.0382 0.64997 13.1375 0.64997H14.9276C15.0269 0.64997 15.1222 0.689822 15.1924 0.76076C15.2627 0.831698 15.3021 0.92791 15.3021 1.02823V2.44588C15.3021 2.44588 15.942 0.423646 17.8411 0.423646C17.8411 0.423646 19.7195 0.194321 20.4833 2.29994C20.4833 2.29994 21.1232 0.423646 23.0635 0.423646C23.0635 0.423646 25.9491 0.25036 25.9491 3.26595L25.9711 4.92676V11.1157C25.9711 11.216 25.9316 11.3122 25.8614 11.3832C25.7912 11.4541 25.6959 11.494 25.5966 11.494H23.662C23.5627 11.4939 23.4674 11.4541 23.3972 11.3831C23.327 11.3122 23.2875 11.216 23.2875 11.1157L23.2698 4.36387C23.3248 2.83498 22.1001 2.94622 22.1001 2.94622C20.5589 2.97408 20.7072 4.92676 20.7072 4.92676V11.1157C20.7072 11.216 20.6677 11.3122 20.5975 11.3832C20.5273 11.4541 20.432 11.494 20.3327 11.494H18.3983C18.299 11.4939 18.2037 11.4541 18.1335 11.3831C18.0633 11.3122 18.0238 11.216 18.0237 11.1157V4.51664C18.0237 4.51664 18.1369 2.93221 16.7606 2.93221C16.7608 2.93221 15.3984 2.75159 15.4465 4.90591ZM65.3102 4.8874V11.0762C65.3102 11.1765 65.2707 11.2727 65.2005 11.3436C65.1303 11.4145 65.035 11.4544 64.9357 11.4544L62.9238 11.4938C62.8245 11.4938 62.7293 11.4539 62.6591 11.383C62.5888 11.312 62.5494 11.2158 62.5493 11.1155V4.51664C62.5493 4.51664 62.6624 2.93221 61.2864 2.93221C61.2864 2.93221 59.972 2.86684 59.972 5.35105V11.0947C59.972 11.195 59.9325 11.2912 59.8623 11.3621C59.7921 11.433 59.6968 11.4729 59.5975 11.473H57.6629C57.5636 11.4729 57.4684 11.433 57.3981 11.3621C57.3279 11.2912 57.2884 11.195 57.2884 11.0947V1.02823C57.2884 0.927923 57.3279 0.831737 57.3981 0.760809C57.4684 0.68988 57.5636 0.650014 57.6629 0.64997H59.453C59.5523 0.64997 59.6476 0.689822 59.7178 0.76076C59.7881 0.831698 59.8275 0.92791 59.8275 1.02823V2.44588C59.8275 2.44588 60.4674 0.423646 62.3665 0.423646C62.3665 0.423646 64.4008 0.111931 65.086 2.26075C65.0861 2.26058 65.3102 2.70389 65.3102 4.8874ZM51.343 0.381951C48.8692 0.381951 46.8637 2.48757 46.8637 6.03169C46.8637 9.15202 48.4118 11.6814 51.343 11.6814C54.109 11.6814 55.8223 9.15202 55.8223 6.03169C55.8223 2.55012 53.8169 0.381951 51.343 0.381951ZM52.9044 6.15678C52.9044 7.49103 52.7392 8.19986 52.7392 8.19986C52.5042 9.61033 51.4905 9.61233 51.341 9.60483C51.1797 9.61133 50.1573 9.59666 49.9458 8.19986C49.9458 8.19986 49.7806 7.49103 49.7806 6.15678V5.93446C49.7806 4.6002 49.9458 3.89138 49.9458 3.89138C50.1573 2.49458 51.1798 2.4799 51.341 2.48624C51.4905 2.47873 52.5042 2.48057 52.7392 3.89138C52.7392 3.89138 52.9044 4.6002 52.9044 5.93446V6.15678ZM45.7409 2.43187V0.987536C45.7409 0.887229 45.7014 0.791042 45.6312 0.720114C45.5609 0.649186 45.4657 0.609319 45.3664 0.609275H38.9723C38.873 0.609275 38.7777 0.649127 38.7075 0.720065C38.6372 0.791003 38.5978 0.887215 38.5978 0.987536V2.42069C38.5978 2.521 38.6373 2.61719 38.7075 2.68812C38.7777 2.75904 38.873 2.79891 38.9723 2.79896H42.3075L38.3598 8.58296C38.3598 8.58296 38.2042 8.81745 38.2094 9.07646V10.8358C38.2094 10.8358 38.1836 11.4391 38.861 11.089C38.861 11.089 40.0642 10.3548 42.0816 10.3548C42.0816 10.3548 44.074 10.3298 45.4024 11.1522C45.4024 11.1522 45.9538 11.4054 45.9538 10.8487V9.3173C45.9538 9.3173 46.0038 8.91202 45.4775 8.65901C45.4775 8.65901 43.9487 7.81109 41.9438 7.95018L45.7409 2.43187ZM11.27 9.67288L10.6644 8.7419C10.4717 8.39433 10.4856 8.00506 10.4856 8.00506V3.71059C10.5682 -0.00031361 6.49474 0.319408 6.49474 0.319408C2.87363 0.319408 2.33875 3.16554 2.33875 3.16554C2.18782 3.73777 2.62675 3.75161 2.62675 3.75161L4.39619 3.93291C4.39619 3.93291 4.69789 4.00262 4.80771 3.63987C4.80771 3.63987 5.04071 2.39818 6.34381 2.39818C7.76167 2.39818 7.74697 3.6272 7.74697 3.6272V4.65607C4.91653 4.75164 3.60485 5.54519 3.60485 5.54519C1.85721 6.54588 1.96719 8.53342 1.96719 8.53342C1.96719 11.7717 5.02222 11.6326 5.02222 11.6326C6.97628 11.6326 8.13223 10.1872 8.13223 10.1872C8.47621 10.799 9.10935 11.3824 9.10935 11.3824C9.42608 11.7293 9.75619 11.4381 9.75619 11.4381L11.1874 10.2012C11.5038 9.96474 11.27 9.67288 11.27 9.67288ZM5.97588 9.63285C5.05673 9.63285 4.71507 8.71038 4.86765 7.80375C5.0204 6.89712 5.81372 6.18463 7.74714 6.20548V6.75669C7.81567 9.16469 6.74096 9.63285 5.97588 9.63285ZM36.9761 9.67288L36.3707 8.7419C36.178 8.39433 36.1917 8.00506 36.1917 8.00506V3.71059C36.2743 -0.00031361 32.2009 0.319408 32.2009 0.319408C28.5798 0.319408 28.0449 3.16554 28.0449 3.16554C27.8939 3.73777 28.3329 3.75161 28.3329 3.75161L30.1023 3.93291C30.1023 3.93291 30.404 4.00262 30.5138 3.63987C30.5138 3.63987 30.7468 2.39818 32.0499 2.39818C33.4678 2.39818 33.4531 3.6272 33.4531 3.6272V4.65607C30.6228 4.75164 29.311 5.54519 29.311 5.54519C27.5633 6.54588 27.6733 8.53342 27.6733 8.53342C27.6733 11.7717 30.7283 11.6326 30.7283 11.6326C32.6824 11.6326 33.8384 10.1872 33.8384 10.1872C34.1825 10.799 34.8153 11.3824 34.8153 11.3824C35.132 11.7293 35.4623 11.4381 35.4623 11.4381L36.8934 10.2012C37.21 9.96474 36.9761 9.67288 36.9761 9.67288ZM31.682 9.63285C30.7629 9.63285 30.4212 8.71038 30.5738 7.80375C30.7265 6.89712 31.5198 6.18463 33.4531 6.20548V6.75669C33.5218 9.16469 32.4473 9.63285 31.682 9.63285Z" fill="black"/>
<path d="M41.847 17.8018C41.847 17.8018 41.6851 18.0862 41.884 18.1497C41.884 18.1497 42.1086 18.2383 42.3886 17.9758C42.3886 17.9758 44.4312 16.1737 44.4804 12.8928C44.4804 12.8928 44.4954 12.483 44.3326 12.3709C44.3326 12.3709 43.6927 11.7992 41.3917 11.9731C41.3917 11.9731 39.386 12.1099 38.2909 13.0917C38.2909 13.0917 38.1925 13.1786 38.1925 13.2904C38.1925 13.2904 38.1689 13.5317 38.7708 13.4271C38.7708 13.4271 40.7764 13.1411 41.97 13.2904C41.97 13.2904 42.5855 13.3649 42.7577 13.5764C42.7577 13.5764 43.0407 13.8126 42.893 14.5953C42.893 14.5956 42.4867 16.584 41.847 17.8018Z" fill="#F3971B"/>
<path d="M41.4425 14.6541C41.4425 14.6541 41.742 15.0461 41.2587 15.3842C41.2587 15.3842 36.0954 19.5554 27.4257 19.5554C27.4257 19.5554 18.5014 20 11.0496 13.1619C11.0496 13.1619 10.7884 12.9303 10.9505 12.715C10.9505 12.715 11.0955 12.5168 11.4709 12.7323C11.4709 12.7323 18.4807 17.1439 27.6871 17.1439C27.6871 17.1439 34.0861 17.394 40.6503 14.5587C40.6503 14.5587 41.1733 14.2851 41.4425 14.6541Z" fill="#F3971B"/>
</svg>
