<svg width="74" height="24" viewBox="0 0 74 24" fill="none" xmlns="http://www.w3.org/2000/svg">
<g clip-path="url(#clip0_698_1111)">
<path d="M71.5311 14.6672L73.5603 16.0199C72.9017 16.9899 71.3266 18.6542 68.6033 18.6542C65.2216 18.6542 62.7031 16.0378 62.7031 12.7094C62.7031 9.16751 65.2483 6.76465 68.3186 6.76465C71.4066 6.76465 72.9194 9.22079 73.409 10.5468L73.676 11.2232L65.72 14.5159C66.3251 15.7085 67.2686 16.3137 68.6033 16.3137C69.9383 16.3137 70.8637 15.6551 71.5311 14.6672ZM65.2928 12.5226L70.6057 10.3155C70.312 9.57693 69.44 9.05193 68.3986 9.05193C67.0727 9.05193 65.2306 10.2266 65.2928 12.5226Z" fill="#FF302F"/>
<path d="M58.8682 0.703756H61.431V18.1109H58.8682V0.703613V0.703756Z" fill="#20B15A"/>
<path d="M54.8279 7.22792H57.3019V17.8003C57.3019 22.1876 54.7122 23.9942 51.6508 23.9942C48.7675 23.9942 47.0322 22.0542 46.3825 20.4791L48.6518 19.5356C49.0611 20.5056 50.0489 21.6538 51.6508 21.6538C53.6175 21.6538 54.8279 20.4345 54.8279 18.1564V17.3021H54.7389C54.1515 18.0139 53.0302 18.6546 51.6064 18.6546C48.6339 18.6546 45.9106 16.0649 45.9106 12.7278C45.9106 9.37263 48.6339 6.75635 51.6064 6.75635C53.0214 6.75635 54.1515 7.38821 54.7389 8.08235H54.8279V7.22806V7.22792ZM55.0058 12.7278C55.0058 10.6275 53.6086 9.09678 51.8288 9.09678C50.0311 9.09678 48.5182 10.6275 48.5182 12.7278C48.5182 14.8012 50.0311 16.3052 51.8288 16.3052C53.6088 16.3142 55.0059 14.8012 55.0059 12.7278H55.0058Z" fill="#3686F7"/>
<path d="M31.8406 12.6831C31.8406 16.1093 29.1709 18.6278 25.8959 18.6278C22.621 18.6278 19.9512 16.1005 19.9512 12.6831C19.9512 9.23906 22.621 6.72949 25.8959 6.72949C29.1709 6.72949 31.8406 9.23906 31.8406 12.6831ZM29.242 12.6831C29.242 10.5473 27.6935 9.07878 25.8959 9.07878C24.0983 9.07878 22.5497 10.5473 22.5497 12.6831C22.5497 14.8011 24.0983 16.2873 25.8959 16.2873C27.6936 16.2873 29.242 14.8011 29.242 12.6831Z" fill="#FF302F"/>
<path d="M44.825 12.7094C44.825 16.1357 42.1551 18.6541 38.8803 18.6541C35.6053 18.6541 32.9355 16.1355 32.9355 12.7094C32.9355 9.26536 35.6053 6.76465 38.8803 6.76465C42.1551 6.76465 44.825 9.25651 44.825 12.7094ZM42.2174 12.7094C42.2174 10.5736 40.669 9.10508 38.8713 9.10508C37.0737 9.10508 35.5251 10.5736 35.5251 12.7094C35.5251 14.8274 37.0737 16.3137 38.8713 16.3137C40.6778 16.3137 42.2174 14.8185 42.2174 12.7094Z" fill="#FFBA40"/>
<path d="M10.1795 16.0466C6.45066 16.0466 3.53181 13.0386 3.53181 9.30977C3.53181 5.58105 6.45066 2.57305 10.1795 2.57305C12.1908 2.57305 13.6591 3.36505 14.7448 4.37962L16.5337 2.59091C15.0208 1.14034 13.0007 0.0366211 10.1795 0.0366211C5.07138 0.036764 0.772949 4.20176 0.772949 9.30977C0.772949 14.4181 5.07138 18.5829 10.1795 18.5829C12.9384 18.5829 15.0208 17.6752 16.6494 15.9843C18.3224 14.3112 18.8385 11.9618 18.8385 10.0573C18.8385 9.46105 18.7674 8.84705 18.6872 8.3932H10.1795V10.8672H16.24C16.062 12.4158 15.5725 13.4748 14.8517 14.1955C13.9795 15.0766 12.6002 16.0466 10.1795 16.0466Z" fill="#3686F7"/>
</g>
<defs>
<clipPath id="clip0_698_1111">
<rect width="73.1429" height="24" fill="white" transform="translate(0.666992)"/>
</clipPath>
</defs>
</svg>
