<svg width="94" height="16" viewBox="0 0 94 16" fill="none" xmlns="http://www.w3.org/2000/svg">
<g clip-path="url(#clip0_698_887)">
<path d="M11.0976 0.630859L7.80644 8.39388C7.71358 8.62061 7.61589 8.87387 7.52423 9.11989C7.43258 8.87266 7.33489 8.6182 7.24082 8.38906L3.95086 0.630859H1.19032L0 15.367H2.85822L3.5384 6.46066L6.36406 12.8802H8.68199L11.5125 6.49564L12.2107 15.3658H15.0473L13.8581 0.630859H11.0976Z" fill="#020617"/>
<path d="M33.8728 3.22858H38.6112V15.367H41.4634V3.22858H46.2017V0.630859H33.8728V3.22858Z" fill="#020617"/>
<path d="M73.2861 9.09577C74.6802 8.39991 75.5522 6.90688 75.5522 5.1413C75.5522 3.17793 74.5452 1.58119 72.9243 0.973363C72.3551 0.762313 71.6978 0.630859 70.1807 0.630859H65.4941V15.367H68.3475V9.8652H70.5714L73.4887 15.367H76.728L73.4188 9.32009C73.3717 9.23687 73.3271 9.1621 73.2861 9.09457V9.09577ZM68.3475 3.22858H70.1216C71.1129 3.22858 71.5024 3.32868 71.7991 3.48426C72.3707 3.80143 72.6602 4.38514 72.6602 5.21848C72.6602 6.52096 71.9342 7.26748 70.6703 7.26748H68.3475V3.22858Z" fill="#020617"/>
<path d="M91.9418 12.435C92.891 11.1373 93.4095 9.55024 93.4095 7.91973C93.4095 3.69993 90.087 0.394287 85.8455 0.394287C81.604 0.394287 78.3008 3.69993 78.3008 7.91973C78.3008 12.1395 81.6149 15.6007 85.8455 15.6007C87.4616 15.6007 88.9546 15.1388 90.1895 14.2597L91.8478 15.9179L93.6158 14.0281L91.9418 12.4338V12.435ZM86.5764 10.7731L88.1249 12.2842C87.464 12.6738 86.6318 12.9053 85.8467 12.9053C83.2056 12.9053 81.2133 10.7623 81.2133 7.91973C81.2133 5.07718 83.2056 3.07161 85.8467 3.07161C88.4879 3.07161 90.4995 5.15557 90.4995 7.91973C90.4995 8.79769 90.2703 9.68169 89.8615 10.421L88.3443 8.88453L86.5776 10.7719L86.5764 10.7731Z" fill="#020617"/>
<path d="M33.0734 9.07153C33.1205 8.72058 33.153 8.36481 33.153 8.0006C33.153 7.63639 33.1229 7.30595 33.0783 6.96586L31.4441 6.40386C31.291 5.79845 31.0546 5.22801 30.7447 4.70461L31.5032 3.15007C31.0763 2.59169 30.5794 2.09241 30.0223 1.66428L28.4701 2.42165C27.9431 2.10688 27.3691 1.86689 26.76 1.71131L26.198 0.075978C25.8543 0.031356 25.507 0 25.1512 0C24.7955 0 24.4481 0.031356 24.1044 0.075978L23.5424 1.71131C22.9322 1.86689 22.3593 2.10688 21.8323 2.42165L20.2802 1.66428C19.723 2.09241 19.2261 2.59169 18.7992 3.15007L19.5578 4.70461C19.2479 5.22922 19.0115 5.79965 18.8583 6.40386L17.2242 6.96586C17.1808 7.30595 17.1494 7.64845 17.1494 8.0006C17.1494 8.35275 17.182 8.72058 17.229 9.07153L18.8668 9.63473C19.0223 10.2317 19.2587 10.7949 19.5662 11.3123L18.8077 12.8644C19.2394 13.4264 19.7423 13.9269 20.3055 14.3574L21.8613 13.5976C22.3762 13.9004 22.9346 14.1331 23.5279 14.2851L24.0911 15.9216C24.4385 15.9674 24.7906 16 25.15 16C25.5094 16 25.8616 15.9686 26.2089 15.9216L26.7721 14.2851C27.3642 14.1319 27.9238 13.9004 28.4388 13.5976L29.9945 14.3574C30.5577 13.9281 31.0606 13.4264 31.4924 12.8644L30.7338 11.3123C31.0413 10.7949 31.2777 10.2317 31.4333 9.63473L33.071 9.07153H33.0734ZM25.1536 11.8092C23.0504 11.8092 21.3451 10.1039 21.3451 8.0006C21.3451 5.89734 23.0504 4.19206 25.1536 4.19206C27.2569 4.19206 28.9622 5.89734 28.9622 8.0006C28.9622 10.1039 27.2569 11.8092 25.1536 11.8092Z" fill="#020617"/>
<path d="M62.8024 9.07153C62.8495 8.72058 62.882 8.36481 62.882 8.0006C62.882 7.63639 62.8519 7.30595 62.8073 6.96586L61.1731 6.40386C61.02 5.79845 60.7836 5.22801 60.4737 4.70461L61.2322 3.15007C60.8053 2.59169 60.3084 2.09241 59.7513 1.66428L58.1991 2.42165C57.6721 2.10688 57.0981 1.86689 56.489 1.71131L55.927 0.075978C55.5833 0.031356 55.236 0 54.8802 0C54.5245 0 54.1771 0.031356 53.8334 0.075978L53.2714 1.71131C52.6612 1.86689 52.0883 2.10688 51.5613 2.42165L50.0092 1.66428C49.452 2.09241 48.9552 2.59169 48.5282 3.15007L49.2868 4.70461C48.9769 5.22922 48.7405 5.79965 48.5873 6.40386L46.9532 6.96586C46.9098 7.30595 46.8784 7.64845 46.8784 8.0006C46.8784 8.35275 46.911 8.72058 46.958 9.07153L48.5958 9.63473C48.7513 10.2317 48.9877 10.7949 49.2952 11.3123L48.5367 12.8644C48.9684 13.4264 49.4713 13.9269 50.0345 14.3574L51.5903 13.5976C52.1052 13.9004 52.6636 14.1331 53.257 14.2851L53.8202 15.9216C54.1675 15.9674 54.5196 16 54.879 16C55.2384 16 55.5906 15.9686 55.9379 15.9216L56.5011 14.2851C57.0932 14.1319 57.6528 13.9004 58.1678 13.5976L59.7235 14.3574C60.2867 13.9281 60.7896 13.4264 61.2214 12.8644L60.4628 11.3123C60.7703 10.7949 61.0067 10.2317 61.1623 9.63473L62.8 9.07153H62.8024ZM54.8826 11.8092C52.7794 11.8092 51.0741 10.1039 51.0741 8.0006C51.0741 5.89734 52.7794 4.19206 54.8826 4.19206C56.9859 4.19206 58.6912 5.89734 58.6912 8.0006C58.6912 10.1039 56.9859 11.8092 54.8826 11.8092Z" fill="#020617"/>
</g>
<defs>
<clipPath id="clip0_698_887">
<rect width="93.6145" height="16" fill="white"/>
</clipPath>
</defs>
</svg>
