<svg width="86" height="16" viewBox="0 0 86 16" fill="none" xmlns="http://www.w3.org/2000/svg">
<g clip-path="url(#clip0_696_240)">
<path d="M85.2156 3.5446V3.49537C85.2156 3.24921 85.0195 3.0769 84.7007 3.0769H84.1367V4.40613H84.4065V3.96306H84.7007L84.9214 4.40613H85.2156L84.9459 3.88921C85.1176 3.83998 85.2156 3.69229 85.2156 3.5446ZM84.4065 3.32306H84.7007C84.8724 3.32306 84.9459 3.37229 84.9459 3.51998V3.5446C84.9459 3.66767 84.8724 3.74152 84.7007 3.74152H84.4065V3.32306Z" fill="#141414"/>
<path d="M84.6514 2.3877C83.8667 2.3877 83.3027 2.97846 83.3027 3.74154C83.3027 4.50462 83.8912 5.09539 84.6514 5.09539C85.4115 5.09539 86.0001 4.50462 86.0001 3.74154C86.0001 2.97846 85.4115 2.3877 84.6514 2.3877ZM84.6514 4.92308C83.9893 4.92308 83.4989 4.43077 83.4989 3.74154C83.4989 3.05231 83.9893 2.56 84.6514 2.56C85.3135 2.56 85.8039 3.05231 85.8039 3.74154C85.8039 4.43077 85.3135 4.92308 84.6514 4.92308Z" fill="#141414"/>
<path d="M80.7529 15.8032V15.2371C81.0962 15.4094 81.4395 15.5078 81.7338 15.5078C81.9545 15.5078 82.0771 15.4586 82.0771 15.3601C82.0771 15.2617 82.0035 15.2371 81.5621 15.1632C81.0717 15.0894 80.7529 14.9417 80.7529 14.5232C80.7529 14.1294 81.0962 13.834 81.7583 13.834C82.028 13.834 82.2978 13.8832 82.5675 14.0063V14.5724C82.3223 14.4248 82.0035 14.3509 81.7338 14.3509C81.4886 14.3509 81.415 14.4001 81.415 14.4986C81.415 14.6217 81.5621 14.6217 81.9299 14.6955C82.4204 14.7694 82.7391 14.9171 82.7391 15.3601C82.7391 15.7048 82.4939 16.0494 81.7583 16.0494C81.3414 16.0001 81.0717 15.9263 80.7529 15.8032Z" fill="#141414"/>
<path d="M78.0801 13.8584H78.6931V14.6215H78.9383L79.5513 13.8584H80.2379L79.4533 14.843L80.287 15.9261H79.5759L78.9628 15.1384H78.7176V15.9261H78.1046V13.8584H78.0801Z" fill="#141414"/>
<path d="M75.2599 13.8584H76.4614C77.0009 13.8584 77.2706 14.1292 77.2706 14.5969C77.2706 14.9169 77.1235 15.163 76.8783 15.2615L77.3687 15.9261H76.6576L76.2652 15.3846H75.8484V15.9261H75.2354V13.8584H75.2599ZM76.3633 14.9169C76.5595 14.9169 76.633 14.7938 76.633 14.6461C76.633 14.4984 76.5595 14.3753 76.3633 14.3753H75.8484V14.9169H76.3633Z" fill="#141414"/>
<path d="M72.2197 14.8924C72.2197 14.2277 72.6856 13.7847 73.3967 13.7847C74.1079 13.7847 74.5738 14.2031 74.5738 14.8924C74.5738 15.557 74.1079 16.0001 73.3967 16.0001C72.6856 16.0001 72.2197 15.5816 72.2197 14.8924ZM73.9607 14.8924C73.9607 14.5231 73.7646 14.3262 73.3967 14.3262C73.0289 14.3262 72.8328 14.5477 72.8328 14.8924C72.8328 15.2616 73.0289 15.4585 73.3967 15.4585C73.7646 15.4831 73.9607 15.2616 73.9607 14.8924Z" fill="#141414"/>
<path d="M68.2959 13.8584H68.958L69.3013 15.2861H69.3258L69.7672 13.8584H70.3802L70.7971 15.2861H70.8216L71.1403 13.8584H71.7779L71.2384 15.9261H70.4292L70.0614 14.6707H70.0369L69.6446 15.9261H68.8354L68.2959 13.8584Z" fill="#141414"/>
<path d="M66.4572 14.3999H65.7461L65.7706 13.8584H67.7813L67.8059 14.3999H67.0948V15.9261H66.4817V14.3999H66.4572Z" fill="#141414"/>
<path d="M63.3428 13.8584H65.1328L65.1573 14.3507H63.9558V14.6461H64.9121V15.1138H63.9558V15.4338H65.2064L65.1819 15.9261H63.3428V13.8584Z" fill="#141414"/>
<path d="M60.4248 13.8584H61.0624L61.9451 15.0399V13.8584H62.5336V15.9261H61.9206L61.0133 14.7199V15.9261H60.4248V13.8584Z" fill="#141414"/>
<path d="M78.4976 2.87988C75.9474 2.87988 74.1328 4.65219 74.1328 7.11373V7.40911C74.1328 9.87065 75.9474 11.643 78.4976 11.643C81.0478 11.643 82.8623 9.87065 82.8623 7.40911V7.11373C82.8623 4.65219 81.0478 2.87988 78.4976 2.87988ZM80.2876 7.33527C80.2876 8.63988 79.6255 9.55065 78.4976 9.55065C77.3696 9.55065 76.7075 8.61527 76.7075 7.33527V7.18758C76.7075 5.88296 77.3696 4.97219 78.4976 4.97219C79.6255 4.97219 80.2876 5.90758 80.2876 7.18758V7.33527Z" fill="#141414"/>
<path d="M71.6803 9.5507C70.9447 9.5507 70.675 9.18147 70.675 8.41839V4.94762H73.6175V3.00301H70.675V1.08301L68.1738 1.45224V8.66455C68.1738 10.6338 69.1792 11.643 71.1899 11.643C72.0727 11.643 73.1271 11.3722 73.9853 10.8799L73.2742 9.10762C72.7593 9.37839 72.0482 9.5507 71.6803 9.5507Z" fill="#141414"/>
<path d="M66.7512 0H64.25V11.4954H66.7512V0Z" fill="#141414"/>
<path d="M58.9787 2.87988C57.8753 2.87988 56.7228 3.17527 55.3251 3.93834L56.1097 5.88296C57.3358 5.19373 58.3657 4.89834 59.1013 4.89834C59.935 4.89834 60.3274 5.21834 60.3274 5.63681V5.66142C60.3274 5.95681 60.1067 6.1045 59.5427 6.15373L58.5619 6.25219C56.1343 6.52296 55.1289 7.58142 55.1289 9.03373V9.13219C55.1289 10.5353 56.2814 11.6183 57.8998 11.6183C58.9542 11.6183 59.886 11.1753 60.45 10.363L60.6216 11.4707H62.8285V6.47373C62.804 4.11065 61.4553 2.87988 58.9787 2.87988ZM58.758 9.72296C57.9488 9.72296 57.5565 9.40296 57.5565 8.91065V8.88604C57.5565 8.44296 57.8017 8.14757 58.6845 7.99988L59.0768 7.95065C59.6408 7.87681 59.9841 7.77834 60.3029 7.58142V8.22142C60.3029 9.18142 59.7143 9.72296 58.758 9.72296Z" fill="#141414"/>
<path d="M50.1753 2.87988C47.6251 2.87988 45.8105 4.65219 45.8105 7.11373V7.40911C45.8105 9.87065 47.6251 11.643 50.1753 11.643C52.7255 11.643 54.54 9.87065 54.54 7.40911V7.11373C54.54 4.65219 52.7255 2.87988 50.1753 2.87988ZM51.9653 7.33527C51.9653 8.63988 51.3033 9.55065 50.1753 9.55065C49.0473 9.55065 48.3853 8.61527 48.3853 7.33527V7.18758C48.3853 5.88296 49.0473 4.97219 50.1753 4.97219C51.3033 4.97219 51.9653 5.90758 51.9653 7.18758V7.33527Z" fill="#141414"/>
<path d="M44.6828 0H42.1816V11.4954H44.6828V0Z" fill="#141414"/>
<path d="M36.9338 2.87988C35.8303 2.87988 34.6779 3.17527 33.2802 3.93834L34.0648 5.88296C35.2909 5.19373 36.3208 4.89834 37.0564 4.89834C37.8901 4.89834 38.2825 5.21834 38.2825 5.63681V5.66142C38.2825 5.95681 38.0618 6.1045 37.4978 6.15373L36.5169 6.25219C34.0893 6.52296 33.084 7.58142 33.084 9.03373V9.13219C33.084 10.5353 34.2365 11.6183 35.8549 11.6183C36.9093 11.6183 37.8411 11.1753 38.4051 10.363L38.5767 11.4707H40.7836V6.47373C40.7591 4.11065 39.3859 2.87988 36.9338 2.87988ZM36.7131 9.72296C35.9039 9.72296 35.5116 9.40296 35.5116 8.91065V8.88604C35.5116 8.44296 35.7568 8.14757 36.6395 7.99988L37.0319 7.95065C37.5959 7.87681 37.9392 7.77834 38.2579 7.58142V8.22142C38.2579 9.18142 37.6449 9.72296 36.7131 9.72296Z" fill="#141414"/>
<path d="M28.8419 2.87988C27.714 2.87988 26.7822 3.39681 26.2917 4.1845L26.0956 3.02758H23.8887V14.3753H26.3898V10.4368C26.8557 11.1753 27.763 11.643 28.8419 11.643C30.8527 11.643 32.471 9.87065 32.471 7.40911V7.11373C32.4956 4.65219 30.8527 2.87988 28.8419 2.87988ZM29.8963 7.33527C29.8963 8.63988 29.2343 9.55065 28.1063 9.55065C26.9783 9.55065 26.3163 8.61527 26.3163 7.33527V7.18758C26.3163 5.88296 26.9783 4.97219 28.1063 4.97219C29.2343 4.97219 29.8963 5.90758 29.8963 7.18758V7.33527Z" fill="#141414"/>
<path d="M16.189 2.83077L13.3691 0L10.5491 2.83077L11.9468 4.23385L4.88477 11.3477L7.70469 14.1785L10.5246 11.3477L9.12691 9.94462L16.189 2.83077Z" fill="#FA582D"/>
<path d="M7.72906 0L0.666992 7.08923L3.48692 9.92L10.549 2.83077L7.72906 0Z" fill="#FA582D"/>
<path d="M17.611 4.23389L10.5244 11.3477L13.3443 14.1785L20.4064 7.08927L17.611 4.23389Z" fill="#FA582D"/>
</g>
<defs>
<clipPath id="clip0_696_240">
<rect width="85.3333" height="16" fill="white" transform="translate(0.666992)"/>
</clipPath>
</defs>
</svg>
