<svg width="74" height="24" viewBox="0 0 74 24" fill="none" xmlns="http://www.w3.org/2000/svg">
<g clip-path="url(#clip0_696_393)">
<mask id="mask0_696_393" style="mask-type:luminance" maskUnits="userSpaceOnUse" x="-40" y="-13" width="153" height="50">
<path d="M-39.0649 36.9211H112.935V-12.9209H-39.0649V36.9211Z" fill="white"/>
</mask>
<g mask="url(#mask0_696_393)">
<path d="M15.4513 4.71501C14.6709 3.81712 13.2603 3.43218 11.4557 3.43218H6.21809C6.03945 3.43208 5.86663 3.49635 5.73075 3.61342C5.59487 3.73048 5.50484 3.89266 5.47686 4.07077L3.29698 18.0336C3.28687 18.0984 3.29079 18.1646 3.30848 18.2277C3.32616 18.2908 3.35719 18.3493 3.39941 18.3991C3.44164 18.4489 3.49407 18.4889 3.55308 18.5163C3.61209 18.5437 3.67629 18.5579 3.74125 18.5579H6.97471L7.7868 13.3583L7.76163 13.5211C7.78907 13.3434 7.8785 13.1814 8.0138 13.0643C8.14911 12.9472 8.32139 12.8828 8.4996 12.8826H10.0361C13.0547 12.8826 15.4182 11.6449 16.1087 8.06466C16.1292 7.95878 16.1469 7.85572 16.1623 7.75501C16.3674 6.43172 16.1609 5.53101 15.4518 4.71548" fill="#003087"/>
<path d="M55.0361 11.3598C54.8384 12.6699 53.8473 12.6699 52.8888 12.6699H52.3434L52.7261 10.2238C52.7494 10.076 52.8753 9.96734 53.0235 9.96734H53.2739C53.9265 9.96734 54.5428 9.96734 54.8608 10.3424C55.0505 10.5669 55.1079 10.9001 55.0361 11.3598ZM54.6188 7.94146H51.0031C50.8834 7.94152 50.7675 7.98466 50.6765 8.06315C50.5854 8.14163 50.525 8.25032 50.5061 8.36969L49.0451 17.7283C49.0384 17.7717 49.0411 17.816 49.0529 17.8583C49.0648 17.9005 49.0855 17.9397 49.1138 17.9731C49.142 18.0065 49.1771 18.0333 49.2166 18.0517C49.2561 18.0702 49.299 18.0798 49.3426 18.0798H51.198C51.3709 18.0798 51.5182 17.9528 51.5453 17.7805L51.9602 15.1264C51.9984 14.8803 52.2091 14.6982 52.4562 14.6982H53.6002C55.9824 14.6982 57.3567 13.5354 57.7157 11.229C57.8775 10.221 57.7222 9.42852 57.2546 8.87369C56.7404 8.26381 55.829 7.94099 54.6193 7.94099" fill="#009CDE"/>
<path d="M29.2451 11.3586C29.0475 12.6687 28.0564 12.6687 27.0974 12.6687H26.552L26.9347 10.2226C26.958 10.0748 27.0839 9.96614 27.2321 9.96614H27.4825C28.1351 9.96614 28.7514 9.96614 29.0694 10.3412C29.2596 10.5657 29.3169 10.8988 29.2451 11.3586ZM28.8279 7.94026H25.2122C24.9651 7.94026 24.7544 8.1219 24.7157 8.36849L23.2542 17.7271C23.2474 17.7705 23.25 17.8149 23.2618 17.8572C23.2736 17.8995 23.2944 17.9387 23.3226 17.9721C23.3509 18.0055 23.386 18.0323 23.4256 18.0507C23.4651 18.0691 23.5081 18.0786 23.5516 18.0786H25.2784C25.5254 18.0786 25.7357 17.897 25.7744 17.6504L26.1692 15.1257C26.2075 14.8791 26.4182 14.6974 26.6653 14.6974H27.8093C30.1915 14.6974 31.5658 13.5342 31.9248 11.2278C32.0865 10.2198 31.9313 9.42732 31.4637 8.87249C30.9495 8.26261 30.0381 7.93979 28.8284 7.93979M37.2225 14.7186C37.0547 15.7172 36.2701 16.3878 35.2682 16.3878C34.7662 16.3878 34.3638 16.2245 34.1056 15.9158C33.8492 15.6099 33.7531 15.1737 33.8343 14.6885C33.99 13.6984 34.7881 13.0066 35.7745 13.0066C36.2663 13.0066 36.6649 13.1713 36.9288 13.4829C37.194 13.7967 37.2985 14.2353 37.2225 14.7186ZM39.6355 11.3163H37.904C37.8321 11.3162 37.7624 11.3421 37.7077 11.3893C37.653 11.4365 37.6168 11.5019 37.6057 11.5737L37.5302 12.0621L37.409 11.8852C37.0341 11.336 36.1983 11.152 35.3638 11.152C33.451 11.152 31.8171 12.6156 31.4991 14.6673C31.3336 15.6918 31.5686 16.6702 32.1439 17.353C32.6721 17.9803 33.4259 18.2415 34.3242 18.2415C35.8664 18.2415 36.7213 17.2419 36.7213 17.2419L36.6439 17.7276C36.6371 17.771 36.6397 17.8154 36.6516 17.8577C36.6634 17.9001 36.6842 17.9393 36.7126 17.9727C36.7409 18.0061 36.776 18.033 36.8156 18.0513C36.8552 18.0697 36.8983 18.0792 36.9418 18.0791H38.5008C38.7478 18.0791 38.9586 17.8979 38.9972 17.6509L39.9333 11.6683C39.9401 11.6248 39.9374 11.5804 39.9255 11.5381C39.9136 11.4957 39.8928 11.4565 39.8644 11.4231C39.836 11.3897 39.8009 11.3629 39.7612 11.3445C39.7216 11.3262 39.6786 11.3167 39.635 11.3167" fill="#003087"/>
<path d="M63.0149 14.7186C62.8471 15.7172 62.0625 16.3878 61.0606 16.3878C60.5586 16.3878 60.1562 16.2245 59.898 15.9158C59.6416 15.6099 59.5455 15.1737 59.6267 14.6885C59.7824 13.6984 60.58 13.0066 61.5669 13.0066C62.0587 13.0066 62.4573 13.1713 62.7212 13.4829C62.9864 13.7967 63.0909 14.2353 63.0149 14.7186ZM65.4279 11.3163H63.6964C63.6245 11.3162 63.5548 11.3421 63.5001 11.3893C63.4454 11.4365 63.4092 11.5019 63.3981 11.5737L63.3226 12.0621L63.2014 11.8852C62.8265 11.336 61.9907 11.152 61.1562 11.152C59.2439 11.152 57.6099 12.6156 57.2915 14.6673C57.126 15.6918 57.3615 16.6702 57.9367 17.353C58.4649 17.9803 59.2187 18.2415 60.1171 18.2415C61.6597 18.2415 62.5147 17.2419 62.5147 17.2419L62.4373 17.7276C62.4303 17.771 62.4328 17.8153 62.4445 17.8577C62.4562 17.9 62.4769 17.9392 62.5052 17.9727C62.5334 18.0061 62.5686 18.033 62.6081 18.0513C62.6477 18.0697 62.6907 18.0792 62.7342 18.0791H64.2927C64.5398 18.0791 64.7505 17.8979 64.7896 17.6509L65.7257 11.6683C65.7325 11.6248 65.7298 11.5804 65.7179 11.5381C65.706 11.4957 65.6852 11.4565 65.6568 11.4231C65.6284 11.3897 65.5933 11.3629 65.5536 11.3445C65.514 11.3262 65.471 11.3167 65.4274 11.3167" fill="#009CDE"/>
<path d="M48.8591 11.317H47.1184C46.952 11.317 46.7967 11.4003 46.7035 11.5396L44.3027 15.1086L43.285 11.6789C43.2539 11.5743 43.1903 11.4826 43.1036 11.4173C43.0168 11.352 42.9116 11.3167 42.8034 11.3166H41.093C41.045 11.3166 40.9977 11.3282 40.9551 11.3503C40.9125 11.3725 40.8757 11.4046 40.8478 11.444C40.8199 11.4833 40.8017 11.5289 40.7947 11.5768C40.7877 11.6247 40.7922 11.6736 40.8077 11.7194L42.7237 17.3975L40.9214 19.9646C40.8896 20.0101 40.8707 20.0637 40.867 20.1193C40.8632 20.1749 40.8746 20.2306 40.9 20.2801C40.9254 20.3296 40.9638 20.3711 41.011 20.4001C41.0582 20.4292 41.1123 20.4445 41.1676 20.4446H42.9064C43.0705 20.4446 43.2248 20.3632 43.319 20.2267L49.1062 11.7947C49.1376 11.7491 49.1561 11.6957 49.1596 11.6403C49.1631 11.5849 49.1514 11.5295 49.126 11.4803C49.1005 11.4311 49.0622 11.3899 49.0152 11.3611C48.9681 11.3323 48.9142 11.317 48.8591 11.317Z" fill="#003087"/>
<path d="M67.465 8.19816L65.9807 17.7281C65.9739 17.7715 65.9766 17.8159 65.9885 17.8582C66.0004 17.9004 66.0212 17.9396 66.0495 17.973C66.0778 18.0064 66.1129 18.0333 66.1525 18.0516C66.192 18.07 66.235 18.0796 66.2786 18.0796H67.7708C68.0179 18.0796 68.2286 17.8979 68.2673 17.6514L69.7307 8.29227C69.7375 8.24883 69.7349 8.20442 69.723 8.1621C69.7112 8.11978 69.6904 8.08055 69.6621 8.04713C69.6337 8.01371 69.5986 7.98689 69.559 7.96853C69.5194 7.95016 69.4763 7.94068 69.4328 7.94074H67.7629C67.691 7.94056 67.6215 7.96637 67.5668 8.01351C67.5122 8.06065 67.476 8.12645 67.465 8.19816Z" fill="#009CDE"/>
<path d="M15.4513 4.71501C14.6709 3.81712 13.2603 3.43218 11.4557 3.43218H6.21809C6.03945 3.43208 5.86663 3.49635 5.73075 3.61342C5.59487 3.73048 5.50484 3.89266 5.47686 4.07077L3.29698 18.0336C3.28687 18.0984 3.29079 18.1646 3.30848 18.2277C3.32616 18.2908 3.35719 18.3493 3.39941 18.3991C3.44164 18.4489 3.49407 18.4889 3.55308 18.5163C3.61209 18.5437 3.67629 18.5579 3.74125 18.5579H6.97471L7.7868 13.3583L7.76163 13.5211C7.78907 13.3434 7.8785 13.1814 8.0138 13.0643C8.14911 12.9472 8.32139 12.8828 8.4996 12.8826H10.0361C13.0547 12.8826 15.4182 11.6449 16.1087 8.06466C16.1292 7.95878 16.1469 7.85572 16.1623 7.75501C16.3674 6.43172 16.1609 5.53101 15.4518 4.71548" fill="#003087"/>
<path d="M8.65957 7.7729C8.68408 7.61727 8.76272 7.47555 8.88139 7.37318C9.00007 7.27081 9.151 7.21448 9.3071 7.21431H13.4133C13.8995 7.21431 14.3531 7.24631 14.7675 7.31313C14.9941 7.34993 15.2183 7.40053 15.4388 7.46466C15.6893 7.53574 15.9316 7.63322 16.1619 7.75548C16.3679 6.43172 16.1609 5.53148 15.4519 4.71548C14.671 3.81806 13.2608 3.43312 11.4562 3.43312H6.21816C6.03968 3.43325 5.86709 3.49762 5.7314 3.61467C5.59571 3.73171 5.50582 3.89377 5.47786 4.07171L3.29705 18.0332C3.28688 18.0979 3.29073 18.1642 3.30835 18.2273C3.32598 18.2904 3.35695 18.3489 3.39913 18.3988C3.44132 18.4487 3.49371 18.4887 3.55271 18.5162C3.6117 18.5436 3.67589 18.5579 3.74086 18.5579H6.97478L7.78688 13.3578L8.65957 7.7729Z" fill="#003087"/>
<path d="M16.1628 7.7542C16.1468 7.85773 16.1289 7.96097 16.1091 8.06384C15.4187 11.6436 13.0552 12.8817 10.0366 12.8817H8.49962C8.32143 12.8819 8.14916 12.9463 8.01392 13.0634C7.87867 13.1805 7.78936 13.3426 7.76211 13.5203L6.97519 18.5566L6.75142 19.9853C6.74253 20.042 6.74592 20.1 6.76137 20.1553C6.77682 20.2105 6.80396 20.2618 6.84092 20.3054C6.87787 20.3491 6.92377 20.3841 6.97544 20.4082C7.02711 20.4322 7.08333 20.4446 7.14022 20.4446H9.866C10.1886 20.4446 10.4627 20.2074 10.5135 19.886L10.5401 19.7458L11.0538 16.4592L11.0865 16.2775C11.1109 16.1218 11.1896 15.9799 11.3084 15.8775C11.4272 15.7751 11.5783 15.7189 11.7345 15.7189H12.1424C14.7829 15.7189 16.8504 14.6366 17.4546 11.5043C17.7063 10.1961 17.5758 9.10291 16.9091 8.33538C16.6974 8.09742 16.4445 7.90046 16.1628 7.7542Z" fill="#009CDE"/>
<path d="M15.4408 7.46476C15.3354 7.43323 15.2268 7.40499 15.1149 7.38005C15.003 7.35511 14.8874 7.33299 14.769 7.31417C14.3541 7.24593 13.901 7.21393 13.4143 7.21393H9.30859C9.15231 7.21374 9.00112 7.27 8.88236 7.37253C8.7636 7.47507 8.6851 7.61712 8.66106 7.77299L7.78836 13.3589L7.76318 13.5212C7.79043 13.3435 7.87974 13.1814 8.01499 13.0643C8.15024 12.9472 8.3225 12.8828 8.50069 12.8827H10.0377C13.0562 12.8827 15.4198 11.645 16.1102 8.06476C16.1307 7.95887 16.148 7.85629 16.1638 7.75511C15.9815 7.6588 15.7916 7.5779 15.596 7.51323C15.5452 7.49629 15.4935 7.48076 15.4408 7.46476Z" fill="#012169"/>
</g>
</g>
<defs>
<clipPath id="clip0_696_393">
<rect width="73.2" height="24" fill="white" transform="translate(0.333496)"/>
</clipPath>
</defs>
</svg>
